<svg xmlns="http://www.w3.org/2000/svg" version="1.1" xmlns:xlink="http://www.w3.org/1999/xlink" viewBox="0 0 200 200"><rect width="200" height="200" fill="url('#gradient')"></rect><defs><linearGradient id="gradient" gradientTransform="rotate(26 0.5 0.5)"><stop offset="0%" stop-color="#000000"></stop><stop offset="100%" stop-color="#000000"></stop></linearGradient></defs><g><g fill="#ffe836" transform="matrix(5.368797953964195,0,0,5.368797953964195,17.373576634192403,130.30639353359447)" stroke="#fff700" stroke-width="0.45"><path d="M4.95 0L1.65 0L1.65-8.28L0.12-8.28L0.12-10.57L1.65-10.57L1.65-11.41Q1.65-13.21 2.71-14.21Q3.78-15.21 5.70-15.21L5.70-15.21Q6.41-15.21 7.25-15L7.25-15L7.26-12.58Q6.95-12.67 6.45-12.67L6.45-12.67Q4.95-12.67 4.95-11.38L4.95-11.38L4.95-10.57L7.01-10.57L7.01-8.28L4.95-8.28L4.95 0ZM8.42-5.34L8.42-5.78Q8.42-8.16 9.05-10.21Q9.69-12.27 10.81-13.69Q11.92-15.12 13.29-15.68L13.29-15.68L13.92-14.06Q12.55-13.06 11.80-10.92Q11.05-8.79 11.04-5.92L11.04-5.92L11.04-5.49Q11.04-2.55 11.79-0.39Q12.54 1.77 13.92 2.77L13.92 2.77L13.29 4.39Q11.94 3.85 10.81 2.40Q9.67 0.95 9.05-1.06Q8.44-3.08 8.42-5.34L8.42-5.34ZM20.76-2.97L20.76-2.97Q20.76-3.39 20.32-3.64Q19.88-3.90 18.65-4.17Q17.42-4.44 16.62-4.89Q15.82-5.33 15.40-5.97Q14.98-6.60 14.98-7.42L14.98-7.42Q14.98-8.88 16.18-9.82Q17.38-10.76 19.33-10.76L19.33-10.76Q21.42-10.76 22.69-9.81Q23.96-8.87 23.96-7.32L23.96-7.32L20.65-7.32Q20.65-8.59 19.32-8.59L19.32-8.59Q18.80-8.59 18.45-8.31Q18.10-8.02 18.10-7.59L18.10-7.59Q18.10-7.15 18.53-6.88Q18.96-6.60 19.90-6.43Q20.84-6.25 21.55-6.01L21.55-6.01Q23.94-5.19 23.94-3.07L23.94-3.07Q23.94-1.62 22.65-0.71Q21.37 0.20 19.33 0.20L19.33 0.20Q17.97 0.20 16.90-0.29Q15.84-0.78 15.24-1.62Q14.65-2.46 14.65-3.39L14.65-3.39L17.72-3.39Q17.74-2.66 18.21-2.32Q18.68-1.98 19.41-1.98L19.41-1.98Q20.09-1.98 20.42-2.26Q20.76-2.53 20.76-2.97ZM30.66-5.94L30.66-5.51Q30.66-3.21 29.99-1.15Q29.32 0.91 28.13 2.39Q26.94 3.87 25.57 4.39L25.57 4.39L24.94 2.77Q26.30 1.76 27.04-0.35Q27.78-2.46 27.81-5.21L27.81-5.21L27.81-5.80Q27.81-8.74 27.07-10.90Q26.32-13.06 24.94-14.06L24.94-14.06L25.57-15.68Q26.93-15.15 28.11-13.70Q29.29-12.25 29.97-10.21Q30.64-8.17 30.66-5.94L30.66-5.94Z"></path></g></g></svg>